Green Lantern: The Animated Series (TV Series 2011ΓÇô )


IMDB:- 
http://www.imdb.com/title/tt1724587/

Screenshots:- 
http://bayimg.com/nAoBLAadF 
http://bayimg.com/NaoBMaADF


Plot Summary:-
The further adventures of Hal Jordan and his comrades of the Green Lantern Corps. 

Details:-
Video
ID                                       : 1
Format                                   : AVC
Format/Info                              : Advanced Video Codec
Format profile                           : High@L5.0
Format settings, CABAC                   : Yes
Format settings, ReFrames                : 16 frames
Codec ID                                 : V_MPEG4/ISO/AVC
Duration                                 : 21mn 59s
Bit rate                                 : 500 Kbps
Width                                    : 1 280 pixels
Height                                   : 720 pixels
Display aspect ratio                     : 16:9
Frame rate mode                          : Variable
Frame rate                               : 23.976 fps
Color space                              : YUV
Chroma subsampling                       : 4:2:0
Bit depth                                : 8 bits
Scan type                                : Progressive
Bits/(Pixel*Frame)                       : 0.023
Stream size                              : 77.7 MiB (89%)
Writing library                          : x264 core 122
Language                                 : English
Default                                  : Yes
Forced                                   : No
Color primaries                          : BT.709-5, BT.1361, IEC 61966-2-4, SMPTE RP177
Transfer characteristics                 : BT.709-5, BT.1361
Matrix coefficients                      : BT.709-5, BT.1361, IEC 61966-2-4 709, SMPTE RP177

Audio
ID                                       : 2
Format                                   : Vorbis
Format settings, Floor                   : 1
Codec ID                                 : A_VORBIS
Duration                                 : 21mn 59s
Bit rate mode                            : Variable
Bit rate                                 : 48.0 Kbps
Channel(s)                               : 1 channel
Sampling rate                            : 48.0 KHz
Compression mode                         : Lossy
Stream size                              : 7.55 MiB (9%)
Writing library                          : aoTuV 20110424 (UTC 2011-04-24)
Language                                 : English
Default                                  : Yes
Forced                                   : No
Writing application                      : HandBrake




Hope this torrent helps you out!!Enjoy!!